PathFileType	4	(X/Y/Z)	W10_1_OpenSim.trc																																																																																																																						
DataRate	CameraRate	NumFrames	NumMarkers	Units	OrigDataRate	OrigDataStartFrame	OrigNumFrames																																																																																																																		
100	100	4	40	mm	100	751	3000																																																																																																																		
Frame#	Time	R.ASIS			R.PSIS			S2			L.PSIS			L.ASIS			R.TH1			R.TH2			R.TH3			R.MKnee			R.Knee			R.SH1			R.SH2			R.SH3			R.SH4			R.Ankle			R.MAnkle			R.Heel			R.MT5			R.MT1			L.TH1			L.TH2			L.TH3			L.TH4			L.MKnee			L.Knee			L.SH1			L.SH2			L.SH3			L.Ankle			L.MAnkle			L.Heel			L.MT5			L.MT1			R.Acr			L.Acr			C7			T10			Clav			Sternum			R.Back		
		X1	Y1	Z1	X2	Y2	Z2	X3	Y3	Z3	X4	Y4	Z4	X5	Y5	Z5	X6	Y6	Z6	X7	Y7	Z7	X8	Y8	Z8	X9	Y9	Z9	X10	Y10	Z10	X11	Y11	Z11	X12	Y12	Z12	X13	Y13	Z13	X14	Y14	Z14	X15	Y15	Z15	X16	Y16	Z16	X17	Y17	Z17	X18	Y18	Z18	X19	Y19	Z19	X20	Y20	Z20	X21	Y21	Z21	X22	Y22	Z22	X23	Y23	Z23	X24	Y24	Z24	X25	Y25	Z25	X26	Y26	Z26	X27	Y27	Z27	X28	Y28	Z28	X29	Y29	Z29	X30	Y30	Z30	X31	Y31	Z31	X32	Y32	Z32	X33	Y33	Z33	X34	Y34	Z34	X35	Y35	Z35	X36	Y36	Z36	X37	Y37	Z37	X38	Y38	Z38	X39	Y39	Z39	X40	Y40	Z40
751	7.5	1000.205	1047.2548	-380.2144	804.953	1053.0161	-467.2667	796.8578	1047.4553	-512.233	796.5741	1052.228	-561.9831	968.4731	1040.1445	-674.8283	937.715	714.2143	-365.2051	859.0914	723.8101	-344.9992	842.803	615.8661	-362.6712	831.5967	495.9049	-495.6123	840.844	495.2119	-379.1382	807.6158	329.8623	-380.4244	780.5676	222.6409	-402.7328	728.2785	348.0113	-362.2407	706.0111	237.295	-376.7964	680.7715	79.191	-396.5094	716.489	95.1969	-490.6567	618.385	41.1704	-452.8065	793.1219	36.7953	-368.6112	839.5076	38.836	-458.3329	1029.7498	765.8197	-693.106	1057.9686	660.6651	-689.5029	950.8919	740.6055	-706.6926	981.8581	635.5895	-696.3453	1077.9738	503.2444	-574.3643	1075.2621	516.6153	-685.5888	1115.1268	398.5286	-715.0933	1036.8195	374.5817	-709.4235	1071.1814	270.3481	-707.8357	1196.9355	91.6235	-721.7307	1222.9546	109.1594	-624.7875	1150.2755	31.12	-667.4528	1315.8737	82.534	-740.8657	1348.6425	107.3751	-641.101	978.2105	1444.3384	-377.8026	900.434	1424.1534	-697.2381	880.8608	1482.641	-529.9997	837.9987	1157.3737	-513.0048	1011.1598	1380.1514	-551.4097	1036.2747	1237.1395	-538.8182	819.3888	1393.1221	-423.5409
752	7.51	1000.7606	1045.2119	-382.0245	805.6886	1050.7778	-469.5978	797.3066	1045.2762	-514.541	797.5016	1050.1659	-564.326	969.5809	1038.4642	-676.8471	937.0857	712.3577	-367.1444	858.478	722.4058	-347.0372	841.69	614.4966	-364.7162	829.9378	494.5093	-497.4889	838.8222	493.834	-380.9997	802.7969	328.9383	-381.7411	773.7636	222.1496	-403.6355	723.691	348.5922	-363.6341	699.5347	238.2015	-377.7634	671.4437	80.1975	-396.5906	707.3713	95.7469	-490.8405	608.668	42.644	-452.8444	783.1905	36.7421	-368.6089	829.6356	38.8769	-458.3695	1031.9614	764.4338	-694.1293	1060.1621	659.3007	-689.6223	953.0868	739.0897	-707.6445	984.0629	634.173	-696.4684	1079.9093	502.9569	-574.1962	1077.02	515.426	-685.1982	1116.2589	396.5004	-714.2394	1037.8899	372.8956	-708.1344	1071.8693	268.5846	-706.0692	1196.5411	90.3158	-719.7739	1223.0487	107.666	-622.7899	1149.5657	30.6511	-665.2433	1315.2009	80.0225	-739.4316	1348.5319	104.5543	-639.8078	978.836	1442.604	-379.9949	900.8228	1422.0884	-699.4233	881.2438	1480.7848	-532.1478	838.7637	1155.4437	-514.9064	1011.7855	1378.4326	-553.5622	1037.078	1235.4014	-540.8808	819.9448	1391.2882	-425.5439
753	7.52	1001.3966	1043.2141	-383.9477	806.499	1048.5626	-472.1009	797.7522	1043.1394	-517.0125	798.5549	1048.1606	-566.8532	970.8334	1036.983	-679.0066	936.6998	710.5427	-369.2629	858.0763	720.9819	-349.3485	840.9221	613.0884	-366.9791	828.8823	493.0124	-499.5332	837.3193	492.4226	-383.014	798.3234	328.071	-383.1432	767.204	221.7649	-404.5711	719.5123	349.3098	-365.1698	693.3257	239.3152	-378.8224	662.233	81.4343	-396.6418	698.4005	96.5276	-491.0001	599.0205	44.5135	-452.8774	773.2748	36.7062	-368.6125	819.811	38.9167	-458.4207	1034.5684	763.3856	-695.2158	1062.8967	658.3168	-689.7233	955.6772	737.7965	-708.4435	986.8498	633.0373	-696.3264	1082.7894	503.1932	-573.9877	1079.5088	514.6526	-684.7346	1117.6916	394.5498	-713.1765	1039.101	371.8209	-706.83	1071.9852	267.2238	-704.3631	1194.0901	88.8617	-718.0164	1221.1342	105.5291	-620.8835	1146.0717	30.58	-663.3859	1312.2336	76.0188	-738.0333	1346.3522	99.5634	-638.5026	979.4728	1440.9269	-382.261	901.1909	1420.1332	-701.7092	881.6595	1479.035	-534.3861	839.6377	1153.5918	-516.9011	1012.4476	1376.8359	-555.8505	1037.9344	1233.7823	-543.1072	820.513	1389.5111	-427.6684
754	7.53	1002.1442	1041.3152	-385.9868	807.4184	1046.4379	-474.7362	798.273	1041.1196	-519.6172	799.7628	1046.2822	-569.5267	972.2527	1035.7564	-681.2722	936.5738	708.808	-371.5393	857.9042	719.5641	-351.9235	840.5108	611.6703	-369.4333	828.4471	491.4383	-501.7173	836.3539	491.0145	-385.155	794.2144	327.3012	-384.5946	760.9104	221.5373	-405.5028	715.7498	350.2185	-366.8388	687.3988	240.6943	-379.9613	653.1706	82.9491	-396.6527	689.61	97.5876	-491.1209	589.4724	46.8631	-452.9015	763.4	36.6904	-368.6103	810.0394	38.9348	-458.4816	1037.4506	762.6379	-696.4313	1065.9943	657.6616	-689.9164	958.5298	736.7461	-709.1831	990.0305	632.1791	-696.0536	1086.2603	503.8215	-573.8421	1082.5365	514.2598	-684.3202	1119.4135	392.7676	-712.0519	1040.4824	371.3169	-705.7236	1071.733	266.2831	-702.9407	1190.166	87.3441	-716.5984	1217.6301	102.9774	-619.2099	1140.4409	30.9151	-662.0445	1307.5749	70.8522	-736.6315	1342.53	92.8997	-637.1183	980.1232	1439.3508	-384.5987	901.5321	1418.3431	-704.0904	882.1068	1477.4387	-536.7023	840.6246	1151.86	-518.9533	1013.1431	1375.4092	-558.2668	1038.8471	1232.3344	-545.4972	821.0916	1387.8351	-429.9045
